<svg width="141" height="120" viewBox="0 0 141 120" fill="none" xmlns="http://www.w3.org/2000/svg">
<ellipse cx="70.5" cy="106.5" rx="70.5" ry="13.5" fill="#D9D9F9"/>
<rect x="30" y="5" width="85" height="102" fill="#FFEDC7"/>
<rect x="27" width="52" height="6" fill="#494C4B"/>
<rect x="78" y="2" width="37" height="19" fill="#494C4B"/>
<rect x="84" y="9" width="10" height="11" fill="#FCF2DC"/>
<path d="M89 4L95.9282 10H82.0718L89 4Z" fill="#FCF2DC"/>
<rect x="86" y="10" width="6" height="8" fill="#E4FCF9"/>
<rect x="100" y="9" width="10" height="11" fill="#FCF2DC"/>
<path d="M105 4L111.928 10H98.0718L105 4Z" fill="#FCF2DC"/>
<rect x="102" y="10" width="6" height="8" fill="#E4FCF9"/>
<rect x="81" y="35" width="32" height="72" fill="#FCF2DC"/>
<rect x="78" y="35" width="37" height="3" fill="#FFFAEF"/>
<rect x="80" y="66" width="34" height="3" fill="#FFFAEF"/>
<rect x="34" y="24" width="8" height="10" fill="white"/>
<rect x="35" y="25" width="6" height="8" fill="#C0F7EF"/>
<rect x="42" y="23" width="2" height="12" fill="#0C402E"/>
<rect x="32" y="23" width="2" height="12" fill="#0C402E"/>
<rect x="85" y="49" width="8" height="12" fill="white"/>
<rect x="86" y="50" width="6" height="10" fill="#C0F7EF"/>
<rect x="100" y="49" width="8" height="12" fill="white"/>
<rect x="101" y="50" width="6" height="10" fill="#C0F7EF"/>
<rect x="88" y="75" width="18" height="23" fill="white"/>
<rect x="90.25" y="76.918" width="13.5" height="19.1667" fill="#C0F7EF"/>
<rect x="34" y="45" width="8" height="10" fill="white"/>
<rect x="35" y="46" width="6" height="8" fill="#C0F7EF"/>
<rect x="42" y="44" width="2" height="12" fill="#0C402E"/>
<rect x="32" y="44" width="2" height="12" fill="#0C402E"/>
<rect x="50" y="45" width="8" height="10" fill="white"/>
<rect x="51" y="46" width="6" height="8" fill="#C0F7EF"/>
<rect x="58" y="44" width="2" height="12" fill="#0C402E"/>
<rect x="48" y="44" width="2" height="12" fill="#0C402E"/>
<rect x="66" y="45" width="8" height="10" fill="white"/>
<rect x="67" y="46" width="6" height="8" fill="#C0F7EF"/>
<rect x="74" y="44" width="2" height="12" fill="#0C402E"/>
<rect x="64" y="44" width="2" height="12" fill="#0C402E"/>
<rect x="36" y="84" width="8" height="10" fill="white"/>
<rect x="37" y="85" width="6" height="8" fill="#C0F7EF"/>
<rect x="44" y="83" width="2" height="12" fill="#0C402E"/>
<rect x="34" y="83" width="2" height="12" fill="#0C402E"/>
<rect x="52" y="84" width="8" height="10" fill="white"/>
<rect x="53" y="85" width="6" height="8" fill="#C0F7EF"/>
<rect x="60" y="83" width="2" height="12" fill="#0C402E"/>
<rect x="50" y="83" width="2" height="12" fill="#0C402E"/>
<rect x="68" y="84" width="8" height="10" fill="white"/>
<rect x="69" y="85" width="6" height="8" fill="#C0F7EF"/>
<rect x="76" y="83" width="2" height="12" fill="#0C402E"/>
<rect x="66" y="83" width="2" height="12" fill="#0C402E"/>
<rect x="50" y="24" width="8" height="10" fill="white"/>
<rect x="51" y="25" width="6" height="8" fill="#C0F7EF"/>
<rect x="58" y="23" width="2" height="12" fill="#0C402E"/>
<rect x="48" y="23" width="2" height="12" fill="#0C402E"/>
<rect x="66" y="24" width="8" height="10" fill="white"/>
<rect x="67" y="25" width="6" height="8" fill="#C0F7EF"/>
<rect x="74" y="23" width="2" height="12" fill="#0C402E"/>
<rect x="64" y="23" width="2" height="12" fill="#0C402E"/>
<rect x="37" y="71" width="38" height="6" fill="#0C402E"/>
<rect x="37" y="71" width="38" height="6" fill="#0C402E"/>
<path d="M37 71L40.4641 77H33.5359L37 71Z" fill="#0C402E"/>
<path d="M75 71L78.4641 77H71.5359L75 71Z" fill="#0C402E"/>
<rect x="96" y="77" width="2" height="19" fill="white"/>
<rect x="96" y="77" width="2" height="19" fill="white"/>
<rect x="96" y="77" width="2" height="19" fill="white"/>
<rect x="96" y="77" width="2" height="19" fill="white"/>
<rect x="88" y="88" width="2" height="18" transform="rotate(-90 88 88)" fill="white"/>
<rect x="88" y="88" width="2" height="18" transform="rotate(-90 88 88)" fill="white"/>
<rect x="88" y="88" width="2" height="18" transform="rotate(-90 88 88)" fill="white"/>
<rect x="88" y="88" width="2" height="18" transform="rotate(-90 88 88)" fill="white"/>
<rect x="28" y="98" width="56" height="12" rx="6" fill="#0D2D22"/>
</svg>
